<mxfile host="65bd71144e">
    <diagram name="Page-1" id="qQ9diZLyG2MnB_oNuW_V">
        <mxGraphModel dx="2018" dy="1167" grid="1" gridSize="10" guides="1" tooltips="1" connect="1" arrows="1" fold="1" page="1" pageScale="1" pageWidth="827" pageHeight="1169" math="0" shadow="0">
            <root>
                <mxCell id="D_81Sa3GUzzVs3lsI0up-0"/>
                <mxCell id="D_81Sa3GUzzVs3lsI0up-1" parent="D_81Sa3GUzzVs3lsI0up-0"/>
                <mxCell id="D_81Sa3GUzzVs3lsI0up-2" value="Yes" style="edgeStyle=orthogonalEdgeStyle;rounded=0;orthogonalLoop=1;jettySize=auto;html=1;startArrow=none;entryX=0;entryY=0.5;entryDx=0;entryDy=0;" parent="D_81Sa3GUzzVs3lsI0up-1" source="k_ZDSwg272NzRK_WEBp6-4" target="D_81Sa3GUzzVs3lsI0up-9" edge="1">
                    <mxGeometry relative="1" as="geometry">
                        <mxPoint x="260" y="218" as="targetPoint"/>
                    </mxGeometry>
                </mxCell>
                <mxCell id="D_81Sa3GUzzVs3lsI0up-3" value="Start" style="rounded=1;whiteSpace=wrap;html=1;" parent="D_81Sa3GUzzVs3lsI0up-1" vertex="1">
                    <mxGeometry x="45" y="72" width="120" height="60" as="geometry"/>
                </mxCell>
                <mxCell id="D_81Sa3GUzzVs3lsI0up-5" value="No" style="edgeStyle=orthogonalEdgeStyle;rounded=0;orthogonalLoop=1;jettySize=auto;html=1;entryX=0.5;entryY=0;entryDx=0;entryDy=0;" parent="D_81Sa3GUzzVs3lsI0up-1" source="k_ZDSwg272NzRK_WEBp6-17" target="D_81Sa3GUzzVs3lsI0up-19" edge="1">
                    <mxGeometry x="-0.6241" relative="1" as="geometry">
                        <mxPoint x="100" y="876" as="sourcePoint"/>
                        <mxPoint x="80" y="956" as="targetPoint"/>
                        <mxPoint as="offset"/>
                    </mxGeometry>
                </mxCell>
                <mxCell id="D_81Sa3GUzzVs3lsI0up-7" value="Yes" style="edgeStyle=orthogonalEdgeStyle;rounded=0;orthogonalLoop=1;jettySize=auto;html=1;entryX=0;entryY=0.5;entryDx=0;entryDy=0;" parent="D_81Sa3GUzzVs3lsI0up-1" source="D_81Sa3GUzzVs3lsI0up-9" target="D_81Sa3GUzzVs3lsI0up-21" edge="1">
                    <mxGeometry x="-0.0551" relative="1" as="geometry">
                        <mxPoint x="600" y="318" as="targetPoint"/>
                        <mxPoint as="offset"/>
                    </mxGeometry>
                </mxCell>
                <mxCell id="D_81Sa3GUzzVs3lsI0up-8" value="No" style="edgeStyle=orthogonalEdgeStyle;rounded=0;orthogonalLoop=1;jettySize=auto;html=1;entryX=0.5;entryY=0;entryDx=0;entryDy=0;" parent="D_81Sa3GUzzVs3lsI0up-1" source="D_81Sa3GUzzVs3lsI0up-9" target="k_ZDSwg272NzRK_WEBp6-2" edge="1">
                    <mxGeometry relative="1" as="geometry">
                        <mxPoint x="345" y="341" as="targetPoint"/>
                    </mxGeometry>
                </mxCell>
                <mxCell id="D_81Sa3GUzzVs3lsI0up-9" value="IIS 10?&lt;br&gt;(Windows Server &lt;br&gt;2016 or later&lt;br&gt;and WMF 5.1)" style="rhombus;whiteSpace=wrap;html=1;align=center;" parent="D_81Sa3GUzzVs3lsI0up-1" vertex="1">
                    <mxGeometry x="260" y="158" width="170" height="120" as="geometry"/>
                </mxCell>
                <mxCell id="k_ZDSwg272NzRK_WEBp6-23" style="edgeStyle=orthogonalEdgeStyle;rounded=0;orthogonalLoop=1;jettySize=auto;html=1;entryX=1;entryY=0.5;entryDx=0;entryDy=0;exitX=0.5;exitY=1;exitDx=0;exitDy=0;" parent="D_81Sa3GUzzVs3lsI0up-1" source="D_81Sa3GUzzVs3lsI0up-17" target="k_ZDSwg272NzRK_WEBp6-20" edge="1">
                    <mxGeometry relative="1" as="geometry"/>
                </mxCell>
                <mxCell id="D_81Sa3GUzzVs3lsI0up-17" value="WMI &lt;br&gt;(WebAdministration NS)" style="whiteSpace=wrap;html=1;" parent="D_81Sa3GUzzVs3lsI0up-1" vertex="1">
                    <mxGeometry x="730" y="696" width="138" height="60" as="geometry"/>
                </mxCell>
                <mxCell id="k_ZDSwg272NzRK_WEBp6-29" style="edgeStyle=orthogonalEdgeStyle;rounded=0;orthogonalLoop=1;jettySize=auto;html=1;entryX=0.5;entryY=0;entryDx=0;entryDy=0;" parent="D_81Sa3GUzzVs3lsI0up-1" source="D_81Sa3GUzzVs3lsI0up-19" target="k_ZDSwg272NzRK_WEBp6-28" edge="1">
                    <mxGeometry relative="1" as="geometry"/>
                </mxCell>
                <mxCell id="D_81Sa3GUzzVs3lsI0up-19" value="VBScript (VBS)" style="rounded=0;whiteSpace=wrap;html=1;" parent="D_81Sa3GUzzVs3lsI0up-1" vertex="1">
                    <mxGeometry x="240" y="1002" width="120" height="60" as="geometry"/>
                </mxCell>
                <mxCell id="D_81Sa3GUzzVs3lsI0up-20" style="edgeStyle=orthogonalEdgeStyle;rounded=0;orthogonalLoop=1;jettySize=auto;html=1;entryX=0.5;entryY=0;entryDx=0;entryDy=0;" parent="D_81Sa3GUzzVs3lsI0up-1" source="D_81Sa3GUzzVs3lsI0up-21" target="k_ZDSwg272NzRK_WEBp6-26" edge="1">
                    <mxGeometry relative="1" as="geometry"/>
                </mxCell>
                <mxCell id="D_81Sa3GUzzVs3lsI0up-21" value="PowerShell 5 Script with &lt;br&gt;Get-Computerinfo, IISAdministration, and WebAdministration modules" style="whiteSpace=wrap;html=1;" parent="D_81Sa3GUzzVs3lsI0up-1" vertex="1">
                    <mxGeometry x="525" y="178" width="160" height="80" as="geometry"/>
                </mxCell>
                <mxCell id="D_81Sa3GUzzVs3lsI0up-22" value="Yes" style="edgeStyle=orthogonalEdgeStyle;rounded=0;orthogonalLoop=1;jettySize=auto;html=1;" parent="D_81Sa3GUzzVs3lsI0up-1" source="D_81Sa3GUzzVs3lsI0up-24" target="D_81Sa3GUzzVs3lsI0up-17" edge="1">
                    <mxGeometry x="-0.7921" relative="1" as="geometry">
                        <mxPoint as="offset"/>
                    </mxGeometry>
                </mxCell>
                <mxCell id="D_81Sa3GUzzVs3lsI0up-23" value="No" style="edgeStyle=orthogonalEdgeStyle;rounded=0;orthogonalLoop=1;jettySize=auto;html=1;entryX=0.5;entryY=0;entryDx=0;entryDy=0;" parent="D_81Sa3GUzzVs3lsI0up-1" source="D_81Sa3GUzzVs3lsI0up-24" target="D_81Sa3GUzzVs3lsI0up-52" edge="1">
                    <mxGeometry x="-0.1077" relative="1" as="geometry">
                        <Array as="points"/>
                        <mxPoint x="660" y="490" as="targetPoint"/>
                        <mxPoint as="offset"/>
                    </mxGeometry>
                </mxCell>
                <mxCell id="D_81Sa3GUzzVs3lsI0up-24" value="IIS Management Scripts&lt;br&gt;and Tools Exists?&lt;br&gt;(WebAdministration NS)" style="rhombus;whiteSpace=wrap;html=1;" parent="D_81Sa3GUzzVs3lsI0up-1" vertex="1">
                    <mxGeometry x="505" y="331" width="200" height="120" as="geometry"/>
                </mxCell>
                <mxCell id="k_ZDSwg272NzRK_WEBp6-18" style="edgeStyle=orthogonalEdgeStyle;rounded=0;orthogonalLoop=1;jettySize=auto;html=1;entryX=0.5;entryY=0;entryDx=0;entryDy=0;startArrow=none;" parent="D_81Sa3GUzzVs3lsI0up-1" source="k_ZDSwg272NzRK_WEBp6-20" target="k_ZDSwg272NzRK_WEBp6-17" edge="1">
                    <mxGeometry relative="1" as="geometry"/>
                </mxCell>
                <mxCell id="k_ZDSwg272NzRK_WEBp6-24" style="edgeStyle=orthogonalEdgeStyle;rounded=0;orthogonalLoop=1;jettySize=auto;html=1;entryX=0.5;entryY=0;entryDx=0;entryDy=0;" parent="D_81Sa3GUzzVs3lsI0up-1" source="D_81Sa3GUzzVs3lsI0up-26" target="k_ZDSwg272NzRK_WEBp6-20" edge="1">
                    <mxGeometry relative="1" as="geometry"/>
                </mxCell>
                <mxCell id="D_81Sa3GUzzVs3lsI0up-26" value="Collect IIS Information &lt;br&gt;usingAppCmd.exe" style="whiteSpace=wrap;html=1;" parent="D_81Sa3GUzzVs3lsI0up-1" vertex="1">
                    <mxGeometry x="525" y="696" width="160" height="60" as="geometry"/>
                </mxCell>
                <mxCell id="D_81Sa3GUzzVs3lsI0up-27" value="End" style="rounded=1;whiteSpace=wrap;html=1;" parent="D_81Sa3GUzzVs3lsI0up-1" vertex="1">
                    <mxGeometry x="721" y="1684" width="120" height="60" as="geometry"/>
                </mxCell>
                <mxCell id="k_ZDSwg272NzRK_WEBp6-66" style="edgeStyle=orthogonalEdgeStyle;rounded=0;orthogonalLoop=1;jettySize=auto;html=1;entryX=1;entryY=0.5;entryDx=0;entryDy=0;" parent="D_81Sa3GUzzVs3lsI0up-1" source="D_81Sa3GUzzVs3lsI0up-36" target="k_ZDSwg272NzRK_WEBp6-62" edge="1">
                    <mxGeometry relative="1" as="geometry">
                        <Array as="points">
                            <mxPoint x="1282" y="1616"/>
                        </Array>
                    </mxGeometry>
                </mxCell>
                <mxCell id="D_81Sa3GUzzVs3lsI0up-36" value="PS script remote execution" style="whiteSpace=wrap;html=1;" parent="D_81Sa3GUzzVs3lsI0up-1" vertex="1">
                    <mxGeometry x="1222" y="1479" width="120" height="60" as="geometry"/>
                </mxCell>
                <mxCell id="D_81Sa3GUzzVs3lsI0up-50" value="Yes" style="edgeStyle=orthogonalEdgeStyle;rounded=0;orthogonalLoop=1;jettySize=auto;html=1;entryX=0.5;entryY=0;entryDx=0;entryDy=0;" parent="D_81Sa3GUzzVs3lsI0up-1" source="D_81Sa3GUzzVs3lsI0up-52" target="D_81Sa3GUzzVs3lsI0up-17" edge="1">
                    <mxGeometry x="-0.5161" relative="1" as="geometry">
                        <mxPoint as="offset"/>
                    </mxGeometry>
                </mxCell>
                <mxCell id="D_81Sa3GUzzVs3lsI0up-51" value="No" style="edgeStyle=orthogonalEdgeStyle;rounded=0;orthogonalLoop=1;jettySize=auto;html=1;" parent="D_81Sa3GUzzVs3lsI0up-1" source="D_81Sa3GUzzVs3lsI0up-52" target="D_81Sa3GUzzVs3lsI0up-26" edge="1">
                    <mxGeometry x="-0.0667" relative="1" as="geometry">
                        <mxPoint as="offset"/>
                    </mxGeometry>
                </mxCell>
                <mxCell id="D_81Sa3GUzzVs3lsI0up-52" value="IIS Management Scripts&lt;br&gt;and Tools can be installed?" style="rhombus;whiteSpace=wrap;html=1;" parent="D_81Sa3GUzzVs3lsI0up-1" vertex="1">
                    <mxGeometry x="520" y="516" width="170" height="120" as="geometry"/>
                </mxCell>
                <mxCell id="k_ZDSwg272NzRK_WEBp6-3" value="Yes" style="edgeStyle=orthogonalEdgeStyle;rounded=0;orthogonalLoop=1;jettySize=auto;html=1;entryX=0;entryY=0.5;entryDx=0;entryDy=0;" parent="D_81Sa3GUzzVs3lsI0up-1" source="k_ZDSwg272NzRK_WEBp6-2" target="D_81Sa3GUzzVs3lsI0up-24" edge="1">
                    <mxGeometry relative="1" as="geometry"/>
                </mxCell>
                <mxCell id="k_ZDSwg272NzRK_WEBp6-12" value="No" style="edgeStyle=orthogonalEdgeStyle;rounded=0;orthogonalLoop=1;jettySize=auto;html=1;entryX=0.5;entryY=0;entryDx=0;entryDy=0;" parent="D_81Sa3GUzzVs3lsI0up-1" source="k_ZDSwg272NzRK_WEBp6-2" target="k_ZDSwg272NzRK_WEBp6-10" edge="1">
                    <mxGeometry x="-0.7211" relative="1" as="geometry">
                        <mxPoint x="345" y="521" as="targetPoint"/>
                        <mxPoint as="offset"/>
                    </mxGeometry>
                </mxCell>
                <mxCell id="k_ZDSwg272NzRK_WEBp6-2" value="IIS 7 - 8.5?&lt;br&gt;(Windows Server &lt;br&gt;2008 or later)" style="rhombus;whiteSpace=wrap;html=1;" parent="D_81Sa3GUzzVs3lsI0up-1" vertex="1">
                    <mxGeometry x="260" y="338.5" width="170" height="106.5" as="geometry"/>
                </mxCell>
                <mxCell id="k_ZDSwg272NzRK_WEBp6-68" value="No" style="edgeStyle=orthogonalEdgeStyle;rounded=0;orthogonalLoop=1;jettySize=auto;html=1;entryX=0;entryY=0.5;entryDx=0;entryDy=0;" parent="D_81Sa3GUzzVs3lsI0up-1" source="k_ZDSwg272NzRK_WEBp6-4" target="k_ZDSwg272NzRK_WEBp6-62" edge="1">
                    <mxGeometry x="-0.963" relative="1" as="geometry">
                        <Array as="points">
                            <mxPoint x="105" y="1616"/>
                        </Array>
                        <mxPoint as="offset"/>
                    </mxGeometry>
                </mxCell>
                <mxCell id="k_ZDSwg272NzRK_WEBp6-4" value="Windows Server&lt;br&gt;2003 or later?" style="rhombus;whiteSpace=wrap;html=1;" parent="D_81Sa3GUzzVs3lsI0up-1" vertex="1">
                    <mxGeometry x="40" y="163" width="130" height="110" as="geometry"/>
                </mxCell>
                <mxCell id="k_ZDSwg272NzRK_WEBp6-5" value="" style="edgeStyle=orthogonalEdgeStyle;rounded=0;orthogonalLoop=1;jettySize=auto;html=1;endArrow=none;" parent="D_81Sa3GUzzVs3lsI0up-1" source="D_81Sa3GUzzVs3lsI0up-3" target="k_ZDSwg272NzRK_WEBp6-4" edge="1">
                    <mxGeometry relative="1" as="geometry">
                        <mxPoint x="105" y="132" as="sourcePoint"/>
                        <mxPoint x="105" y="312" as="targetPoint"/>
                    </mxGeometry>
                </mxCell>
                <mxCell id="k_ZDSwg272NzRK_WEBp6-25" style="edgeStyle=orthogonalEdgeStyle;rounded=0;orthogonalLoop=1;jettySize=auto;html=1;entryX=0;entryY=0.5;entryDx=0;entryDy=0;exitX=0.5;exitY=1;exitDx=0;exitDy=0;" parent="D_81Sa3GUzzVs3lsI0up-1" source="k_ZDSwg272NzRK_WEBp6-10" target="k_ZDSwg272NzRK_WEBp6-20" edge="1">
                    <mxGeometry relative="1" as="geometry"/>
                </mxCell>
                <mxCell id="k_ZDSwg272NzRK_WEBp6-10" value="WMI &lt;br&gt;(MicrosoftIISv2 NS)&amp;nbsp;" style="rounded=0;whiteSpace=wrap;html=1;" parent="D_81Sa3GUzzVs3lsI0up-1" vertex="1">
                    <mxGeometry x="275" y="696" width="140" height="60" as="geometry"/>
                </mxCell>
                <mxCell id="k_ZDSwg272NzRK_WEBp6-14" value="Technically, PowerShell 1.0 can be installed on Windows Server 2003 SP1 but it doesn't support PS Remoting. And PowerShell 2.0 can be installed on Windows Server 2003 SP2. Though the PowerShell on Windows Server 2003 is not installed by default" style="shape=callout;whiteSpace=wrap;html=1;perimeter=calloutPerimeter;position2=1;size=20;position=0.9;align=left;base=20;" parent="D_81Sa3GUzzVs3lsI0up-1" vertex="1">
                    <mxGeometry x="170" y="841" width="380" height="89" as="geometry"/>
                </mxCell>
                <mxCell id="k_ZDSwg272NzRK_WEBp6-27" value="Yes" style="edgeStyle=orthogonalEdgeStyle;rounded=0;orthogonalLoop=1;jettySize=auto;html=1;entryX=0.5;entryY=0;entryDx=0;entryDy=0;" parent="D_81Sa3GUzzVs3lsI0up-1" source="k_ZDSwg272NzRK_WEBp6-17" target="k_ZDSwg272NzRK_WEBp6-26" edge="1">
                    <mxGeometry x="-0.6479" relative="1" as="geometry">
                        <mxPoint as="offset"/>
                    </mxGeometry>
                </mxCell>
                <mxCell id="k_ZDSwg272NzRK_WEBp6-17" value="PowerShell Exists?&lt;br&gt;(Windows Server &lt;br&gt;2008 R2 or later)" style="rhombus;whiteSpace=wrap;html=1;align=center;" parent="D_81Sa3GUzzVs3lsI0up-1" vertex="1">
                    <mxGeometry x="520" y="896" width="170" height="120" as="geometry"/>
                </mxCell>
                <mxCell id="k_ZDSwg272NzRK_WEBp6-20" value="" style="ellipse;whiteSpace=wrap;html=1;aspect=fixed;" parent="D_81Sa3GUzzVs3lsI0up-1" vertex="1">
                    <mxGeometry x="587.5" y="800" width="35" height="35" as="geometry"/>
                </mxCell>
                <mxCell id="k_ZDSwg272NzRK_WEBp6-45" style="edgeStyle=orthogonalEdgeStyle;rounded=0;orthogonalLoop=1;jettySize=auto;html=1;" parent="D_81Sa3GUzzVs3lsI0up-1" source="k_ZDSwg272NzRK_WEBp6-26" target="k_ZDSwg272NzRK_WEBp6-44" edge="1">
                    <mxGeometry relative="1" as="geometry"/>
                </mxCell>
                <mxCell id="k_ZDSwg272NzRK_WEBp6-26" value="PowerShell Script" style="whiteSpace=wrap;html=1;" parent="D_81Sa3GUzzVs3lsI0up-1" vertex="1">
                    <mxGeometry x="851" y="1002" width="120" height="60" as="geometry"/>
                </mxCell>
                <mxCell id="k_ZDSwg272NzRK_WEBp6-35" value="Yes" style="edgeStyle=orthogonalEdgeStyle;rounded=0;orthogonalLoop=1;jettySize=auto;html=1;exitX=1;exitY=0.5;exitDx=0;exitDy=0;" parent="D_81Sa3GUzzVs3lsI0up-1" source="k_ZDSwg272NzRK_WEBp6-28" target="k_ZDSwg272NzRK_WEBp6-30" edge="1">
                    <mxGeometry x="-0.361" relative="1" as="geometry">
                        <mxPoint as="offset"/>
                    </mxGeometry>
                </mxCell>
                <mxCell id="k_ZDSwg272NzRK_WEBp6-28" value="Remoting?" style="rhombus;whiteSpace=wrap;html=1;" parent="D_81Sa3GUzzVs3lsI0up-1" vertex="1">
                    <mxGeometry x="240" y="1104" width="120" height="80" as="geometry"/>
                </mxCell>
                <mxCell id="k_ZDSwg272NzRK_WEBp6-37" value="No" style="edgeStyle=orthogonalEdgeStyle;rounded=0;orthogonalLoop=1;jettySize=auto;html=1;" parent="D_81Sa3GUzzVs3lsI0up-1" source="k_ZDSwg272NzRK_WEBp6-30" target="k_ZDSwg272NzRK_WEBp6-33" edge="1">
                    <mxGeometry relative="1" as="geometry"/>
                </mxCell>
                <mxCell id="k_ZDSwg272NzRK_WEBp6-39" value="Yes" style="edgeStyle=orthogonalEdgeStyle;rounded=0;orthogonalLoop=1;jettySize=auto;html=1;entryX=0.5;entryY=0;entryDx=0;entryDy=0;" parent="D_81Sa3GUzzVs3lsI0up-1" source="k_ZDSwg272NzRK_WEBp6-30" target="k_ZDSwg272NzRK_WEBp6-32" edge="1">
                    <mxGeometry x="-0.7755" relative="1" as="geometry">
                        <mxPoint x="1" as="offset"/>
                    </mxGeometry>
                </mxCell>
                <mxCell id="k_ZDSwg272NzRK_WEBp6-30" value="WMI Remoting ready?&lt;br&gt;Windows Firewall, &lt;br&gt;WMI Remote Management Enabled,&lt;br&gt;Administrator Privilege,&lt;br&gt;Network Connection" style="rhombus;whiteSpace=wrap;html=1;" parent="D_81Sa3GUzzVs3lsI0up-1" vertex="1">
                    <mxGeometry x="347.5" y="1193" width="240" height="140" as="geometry"/>
                </mxCell>
                <mxCell id="k_ZDSwg272NzRK_WEBp6-64" style="edgeStyle=orthogonalEdgeStyle;rounded=0;orthogonalLoop=1;jettySize=auto;html=1;entryX=0;entryY=0.5;entryDx=0;entryDy=0;exitX=0.5;exitY=1;exitDx=0;exitDy=0;" parent="D_81Sa3GUzzVs3lsI0up-1" source="k_ZDSwg272NzRK_WEBp6-32" target="k_ZDSwg272NzRK_WEBp6-62" edge="1">
                    <mxGeometry relative="1" as="geometry"/>
                </mxCell>
                <mxCell id="k_ZDSwg272NzRK_WEBp6-32" value="WMI remote execution" style="whiteSpace=wrap;html=1;" parent="D_81Sa3GUzzVs3lsI0up-1" vertex="1">
                    <mxGeometry x="601" y="1479" width="120" height="60" as="geometry"/>
                </mxCell>
                <mxCell id="k_ZDSwg272NzRK_WEBp6-40" value="Yes" style="edgeStyle=orthogonalEdgeStyle;rounded=0;orthogonalLoop=1;jettySize=auto;html=1;entryX=0.5;entryY=0;entryDx=0;entryDy=0;" parent="D_81Sa3GUzzVs3lsI0up-1" source="k_ZDSwg272NzRK_WEBp6-33" target="k_ZDSwg272NzRK_WEBp6-32" edge="1">
                    <mxGeometry x="-0.0994" relative="1" as="geometry">
                        <mxPoint x="1" as="offset"/>
                    </mxGeometry>
                </mxCell>
                <mxCell id="k_ZDSwg272NzRK_WEBp6-57" value="No" style="edgeStyle=orthogonalEdgeStyle;rounded=0;orthogonalLoop=1;jettySize=auto;html=1;entryX=0.5;entryY=0;entryDx=0;entryDy=0;" parent="D_81Sa3GUzzVs3lsI0up-1" source="k_ZDSwg272NzRK_WEBp6-33" target="k_ZDSwg272NzRK_WEBp6-55" edge="1">
                    <mxGeometry x="-0.2963" relative="1" as="geometry">
                        <mxPoint as="offset"/>
                    </mxGeometry>
                </mxCell>
                <mxCell id="k_ZDSwg272NzRK_WEBp6-33" value="WMI Remoting &lt;br&gt;can be enabled?" style="rhombus;whiteSpace=wrap;html=1;" parent="D_81Sa3GUzzVs3lsI0up-1" vertex="1">
                    <mxGeometry x="387.5" y="1384" width="160" height="95" as="geometry"/>
                </mxCell>
                <mxCell id="k_ZDSwg272NzRK_WEBp6-52" style="edgeStyle=orthogonalEdgeStyle;rounded=0;orthogonalLoop=1;jettySize=auto;html=1;" parent="D_81Sa3GUzzVs3lsI0up-1" source="k_ZDSwg272NzRK_WEBp6-44" target="k_ZDSwg272NzRK_WEBp6-50" edge="1">
                    <mxGeometry relative="1" as="geometry"/>
                </mxCell>
                <mxCell id="k_ZDSwg272NzRK_WEBp6-54" value="Yes" style="edgeStyle=orthogonalEdgeStyle;rounded=0;orthogonalLoop=1;jettySize=auto;html=1;entryX=0.5;entryY=0;entryDx=0;entryDy=0;exitX=1;exitY=0.5;exitDx=0;exitDy=0;" parent="D_81Sa3GUzzVs3lsI0up-1" source="k_ZDSwg272NzRK_WEBp6-44" target="k_ZDSwg272NzRK_WEBp6-47" edge="1">
                    <mxGeometry x="-0.358" y="-2" relative="1" as="geometry">
                        <mxPoint as="offset"/>
                    </mxGeometry>
                </mxCell>
                <mxCell id="k_ZDSwg272NzRK_WEBp6-58" value="No" style="edgeStyle=orthogonalEdgeStyle;rounded=0;orthogonalLoop=1;jettySize=auto;html=1;entryX=0.5;entryY=0;entryDx=0;entryDy=0;" parent="D_81Sa3GUzzVs3lsI0up-1" source="k_ZDSwg272NzRK_WEBp6-44" target="k_ZDSwg272NzRK_WEBp6-50" edge="1">
                    <mxGeometry x="-0.7153" y="-1" relative="1" as="geometry">
                        <mxPoint as="offset"/>
                    </mxGeometry>
                </mxCell>
                <mxCell id="k_ZDSwg272NzRK_WEBp6-44" value="Remoting?" style="rhombus;whiteSpace=wrap;html=1;" parent="D_81Sa3GUzzVs3lsI0up-1" vertex="1">
                    <mxGeometry x="851" y="1104" width="120" height="80" as="geometry"/>
                </mxCell>
                <mxCell id="k_ZDSwg272NzRK_WEBp6-59" value="No" style="edgeStyle=orthogonalEdgeStyle;rounded=0;orthogonalLoop=1;jettySize=auto;html=1;entryX=0.5;entryY=0;entryDx=0;entryDy=0;" parent="D_81Sa3GUzzVs3lsI0up-1" source="k_ZDSwg272NzRK_WEBp6-47" target="k_ZDSwg272NzRK_WEBp6-49" edge="1">
                    <mxGeometry relative="1" as="geometry"/>
                </mxCell>
                <mxCell id="k_ZDSwg272NzRK_WEBp6-60" value="Yes" style="edgeStyle=orthogonalEdgeStyle;rounded=0;orthogonalLoop=1;jettySize=auto;html=1;exitX=1;exitY=0.5;exitDx=0;exitDy=0;entryX=0.5;entryY=0;entryDx=0;entryDy=0;" parent="D_81Sa3GUzzVs3lsI0up-1" source="k_ZDSwg272NzRK_WEBp6-47" target="D_81Sa3GUzzVs3lsI0up-36" edge="1">
                    <mxGeometry x="-0.7551" relative="1" as="geometry">
                        <mxPoint as="offset"/>
                    </mxGeometry>
                </mxCell>
                <mxCell id="k_ZDSwg272NzRK_WEBp6-47" value="PS Remoting ready?&lt;br&gt;Enable-PSRemoting,&lt;br&gt;Windows Firewall, WinRM Enabled,&lt;br&gt;Administrator Privilege,&lt;br&gt;Network Connection" style="rhombus;whiteSpace=wrap;html=1;" parent="D_81Sa3GUzzVs3lsI0up-1" vertex="1">
                    <mxGeometry x="964" y="1193" width="240" height="140" as="geometry"/>
                </mxCell>
                <mxCell id="k_ZDSwg272NzRK_WEBp6-61" value="Yes" style="edgeStyle=orthogonalEdgeStyle;rounded=0;orthogonalLoop=1;jettySize=auto;html=1;entryX=0.5;entryY=0;entryDx=0;entryDy=0;" parent="D_81Sa3GUzzVs3lsI0up-1" source="k_ZDSwg272NzRK_WEBp6-49" target="D_81Sa3GUzzVs3lsI0up-36" edge="1">
                    <mxGeometry x="-0.0816" relative="1" as="geometry">
                        <mxPoint as="offset"/>
                    </mxGeometry>
                </mxCell>
                <mxCell id="k_ZDSwg272NzRK_WEBp6-69" value="No" style="edgeStyle=orthogonalEdgeStyle;rounded=0;orthogonalLoop=1;jettySize=auto;html=1;entryX=0.5;entryY=0;entryDx=0;entryDy=0;" parent="D_81Sa3GUzzVs3lsI0up-1" source="k_ZDSwg272NzRK_WEBp6-49" target="k_ZDSwg272NzRK_WEBp6-50" edge="1">
                    <mxGeometry x="-0.3737" relative="1" as="geometry">
                        <mxPoint as="offset"/>
                    </mxGeometry>
                </mxCell>
                <mxCell id="k_ZDSwg272NzRK_WEBp6-49" value="PS Remoting &lt;br&gt;can be enabled?" style="rhombus;whiteSpace=wrap;html=1;" parent="D_81Sa3GUzzVs3lsI0up-1" vertex="1">
                    <mxGeometry x="1004" y="1384" width="160" height="95" as="geometry"/>
                </mxCell>
                <mxCell id="k_ZDSwg272NzRK_WEBp6-65" style="edgeStyle=orthogonalEdgeStyle;rounded=0;orthogonalLoop=1;jettySize=auto;html=1;entryX=1;entryY=0.5;entryDx=0;entryDy=0;exitX=0.5;exitY=1;exitDx=0;exitDy=0;" parent="D_81Sa3GUzzVs3lsI0up-1" source="k_ZDSwg272NzRK_WEBp6-50" target="k_ZDSwg272NzRK_WEBp6-62" edge="1">
                    <mxGeometry relative="1" as="geometry"/>
                </mxCell>
                <mxCell id="k_ZDSwg272NzRK_WEBp6-50" value="Login to run script &lt;br&gt;on each server" style="rounded=0;whiteSpace=wrap;html=1;" parent="D_81Sa3GUzzVs3lsI0up-1" vertex="1">
                    <mxGeometry x="851" y="1479" width="120" height="60" as="geometry"/>
                </mxCell>
                <mxCell id="k_ZDSwg272NzRK_WEBp6-63" style="edgeStyle=orthogonalEdgeStyle;rounded=0;orthogonalLoop=1;jettySize=auto;html=1;entryX=0;entryY=0.5;entryDx=0;entryDy=0;" parent="D_81Sa3GUzzVs3lsI0up-1" source="k_ZDSwg272NzRK_WEBp6-55" target="k_ZDSwg272NzRK_WEBp6-62" edge="1">
                    <mxGeometry relative="1" as="geometry">
                        <Array as="points">
                            <mxPoint x="300" y="1616"/>
                        </Array>
                    </mxGeometry>
                </mxCell>
                <mxCell id="k_ZDSwg272NzRK_WEBp6-55" value="Login to run script &lt;br&gt;on each server" style="rounded=0;whiteSpace=wrap;html=1;" parent="D_81Sa3GUzzVs3lsI0up-1" vertex="1">
                    <mxGeometry x="240" y="1479" width="120" height="60" as="geometry"/>
                </mxCell>
                <mxCell id="k_ZDSwg272NzRK_WEBp6-56" value="No" style="edgeStyle=orthogonalEdgeStyle;rounded=0;orthogonalLoop=1;jettySize=auto;html=1;endArrow=none;" parent="D_81Sa3GUzzVs3lsI0up-1" source="k_ZDSwg272NzRK_WEBp6-28" edge="1">
                    <mxGeometry x="-0.7123" relative="1" as="geometry">
                        <mxPoint x="300" y="1184" as="sourcePoint"/>
                        <mxPoint x="300" y="1476" as="targetPoint"/>
                        <Array as="points"/>
                        <mxPoint as="offset"/>
                    </mxGeometry>
                </mxCell>
                <mxCell id="k_ZDSwg272NzRK_WEBp6-67" style="edgeStyle=orthogonalEdgeStyle;rounded=0;orthogonalLoop=1;jettySize=auto;html=1;entryX=0.5;entryY=0;entryDx=0;entryDy=0;" parent="D_81Sa3GUzzVs3lsI0up-1" source="k_ZDSwg272NzRK_WEBp6-62" target="D_81Sa3GUzzVs3lsI0up-27" edge="1">
                    <mxGeometry relative="1" as="geometry"/>
                </mxCell>
                <mxCell id="k_ZDSwg272NzRK_WEBp6-62" value="" style="ellipse;whiteSpace=wrap;html=1;aspect=fixed;" parent="D_81Sa3GUzzVs3lsI0up-1" vertex="1">
                    <mxGeometry x="761" y="1596" width="40" height="40" as="geometry"/>
                </mxCell>
            </root>
        </mxGraphModel>
    </diagram>
</mxfile>